<?xml version="1.0" encoding="UTF-8"?>
<svg xmlns="http://www.w3.org/2000/svg" viewBox="0 0 100 100" fill="none">
  <g id="Guides">
    <line id="Baseline-S" style="fill:none;stroke:#27AAE1;opacity:1;stroke-width:0.5;" x1="0" x2="100" y1="71.5" y2="71.5"/>
    <line id="Capline-S" style="fill:none;stroke:#27AAE1;opacity:1;stroke-width:0.5;" x1="0" x2="100" y1="28.5" y2="28.5"/>
    <line id="left-margin-Regular-S" style="fill:none;stroke:#00AEEF;stroke-width:0.5;opacity:1.0;" x1="12.0" x2="12.0" y1="18" y2="82"/>
    <line id="right-margin-Regular-S" style="fill:none;stroke:#00AEEF;stroke-width:0.5;opacity:1.0;" x1="88.0" x2="88.0" y1="18" y2="82"/>
    <line id="Baseline-M" style="fill:none;stroke:#27AAE1;opacity:1;stroke-width:0.5;" x1="0" x2="100" y1="75.0" y2="75.0"/>
    <line id="Capline-M" style="fill:none;stroke:#27AAE1;opacity:1;stroke-width:0.5;" x1="0" x2="100" y1="25.0" y2="25.0"/>
    <line id="left-margin-Regular-M" style="fill:none;stroke:#00AEEF;stroke-width:0.5;opacity:1.0;" x1="10.0" x2="10.0" y1="18" y2="82"/>
    <line id="right-margin-Regular-M" style="fill:none;stroke:#00AEEF;stroke-width:0.5;opacity:1.0;" x1="90.0" x2="90.0" y1="18" y2="82"/>
    <line id="Baseline-L" style="fill:none;stroke:#27AAE1;opacity:1;stroke-width:0.5;" x1="0" x2="100" y1="78.0" y2="78.0"/>
    <line id="Capline-L" style="fill:none;stroke:#27AAE1;opacity:1;stroke-width:0.5;" x1="0" x2="100" y1="22.0" y2="22.0"/>
    <line id="left-margin-Regular-L" style="fill:none;stroke:#00AEEF;stroke-width:0.5;opacity:1.0;" x1="8.0" x2="8.0" y1="18" y2="82"/>
    <line id="right-margin-Regular-L" style="fill:none;stroke:#00AEEF;stroke-width:0.5;opacity:1.0;" x1="92.0" x2="92.0" y1="18" y2="82"/>
  </g>
  <g id="Symbols">
    <g id="Regular-S">
      <g transform="translate(28.5,28.5) scale(1.79167)">
          <path d="M 8.750 3.080 C 7.548 3.780, 7 5.343, 7 8.071 C 7 11.337, 7.444 12.245, 9.500 13.182 C 11.370 14.034, 12.630 14.034, 14.500 13.182 C 16.558 12.244, 17 11.338, 17 8.057 C 17 2.756, 13.221 0.476, 8.750 3.080 M 9 6 C 7.616 8.586, 9.323 12, 12 12 C 14.677 12, 16.384 8.586, 15 6 C 13.624 3.428, 10.376 3.428, 9 6 M 7 15.656 C 3.228 17.178, 0.188 22, 3 22 C 3.550 22, 4 21.341, 4 20.535 C 4 18.429, 7.233 17, 12 17 C 16.767 17, 20 18.429, 20 20.535 C 20 21.341, 20.450 22, 21 22 C 22.684 22, 22.113 19.412, 20.010 17.509 C 17.984 15.676, 9.830 14.514, 7 15.656" fill="#000000" fill-rule="evenodd"/>
      </g>
    </g>
    <g id="Regular-M">
      <g transform="translate(25,25) scale(2.08333)">
          <path d="M 8.750 3.080 C 7.548 3.780, 7 5.343, 7 8.071 C 7 11.337, 7.444 12.245, 9.500 13.182 C 11.370 14.034, 12.630 14.034, 14.500 13.182 C 16.558 12.244, 17 11.338, 17 8.057 C 17 2.756, 13.221 0.476, 8.750 3.080 M 9 6 C 7.616 8.586, 9.323 12, 12 12 C 14.677 12, 16.384 8.586, 15 6 C 13.624 3.428, 10.376 3.428, 9 6 M 7 15.656 C 3.228 17.178, 0.188 22, 3 22 C 3.550 22, 4 21.341, 4 20.535 C 4 18.429, 7.233 17, 12 17 C 16.767 17, 20 18.429, 20 20.535 C 20 21.341, 20.450 22, 21 22 C 22.684 22, 22.113 19.412, 20.010 17.509 C 17.984 15.676, 9.830 14.514, 7 15.656" fill="#000000" fill-rule="evenodd"/>
      </g>
    </g>
    <g id="Regular-L">
      <g transform="translate(22,22) scale(2.33333)">
          <path d="M 8.750 3.080 C 7.548 3.780, 7 5.343, 7 8.071 C 7 11.337, 7.444 12.245, 9.500 13.182 C 11.370 14.034, 12.630 14.034, 14.500 13.182 C 16.558 12.244, 17 11.338, 17 8.057 C 17 2.756, 13.221 0.476, 8.750 3.080 M 9 6 C 7.616 8.586, 9.323 12, 12 12 C 14.677 12, 16.384 8.586, 15 6 C 13.624 3.428, 10.376 3.428, 9 6 M 7 15.656 C 3.228 17.178, 0.188 22, 3 22 C 3.550 22, 4 21.341, 4 20.535 C 4 18.429, 7.233 17, 12 17 C 16.767 17, 20 18.429, 20 20.535 C 20 21.341, 20.450 22, 21 22 C 22.684 22, 22.113 19.412, 20.010 17.509 C 17.984 15.676, 9.830 14.514, 7 15.656" fill="#000000" fill-rule="evenodd"/>
      </g>
    </g>
  </g>
</svg>
