<?xml version="1.0" encoding="UTF-8"?>
<svg xmlns="http://www.w3.org/2000/svg" viewBox="0 0 100 100" fill="none">
  <g id="Guides">
    <line id="Baseline-S" style="fill:none;stroke:#27AAE1;opacity:1;stroke-width:0.5;" x1="0" x2="100" y1="71.5" y2="71.5"/>
    <line id="Capline-S" style="fill:none;stroke:#27AAE1;opacity:1;stroke-width:0.5;" x1="0" x2="100" y1="28.5" y2="28.5"/>
    <line id="left-margin-Regular-S" style="fill:none;stroke:#00AEEF;stroke-width:0.5;opacity:1.0;" x1="12.0" x2="12.0" y1="18" y2="82"/>
    <line id="right-margin-Regular-S" style="fill:none;stroke:#00AEEF;stroke-width:0.5;opacity:1.0;" x1="88.0" x2="88.0" y1="18" y2="82"/>
    <line id="Baseline-M" style="fill:none;stroke:#27AAE1;opacity:1;stroke-width:0.5;" x1="0" x2="100" y1="75.0" y2="75.0"/>
    <line id="Capline-M" style="fill:none;stroke:#27AAE1;opacity:1;stroke-width:0.5;" x1="0" x2="100" y1="25.0" y2="25.0"/>
    <line id="left-margin-Regular-M" style="fill:none;stroke:#00AEEF;stroke-width:0.5;opacity:1.0;" x1="10.0" x2="10.0" y1="18" y2="82"/>
    <line id="right-margin-Regular-M" style="fill:none;stroke:#00AEEF;stroke-width:0.5;opacity:1.0;" x1="90.0" x2="90.0" y1="18" y2="82"/>
    <line id="Baseline-L" style="fill:none;stroke:#27AAE1;opacity:1;stroke-width:0.5;" x1="0" x2="100" y1="78.0" y2="78.0"/>
    <line id="Capline-L" style="fill:none;stroke:#27AAE1;opacity:1;stroke-width:0.5;" x1="0" x2="100" y1="22.0" y2="22.0"/>
    <line id="left-margin-Regular-L" style="fill:none;stroke:#00AEEF;stroke-width:0.5;opacity:1.0;" x1="8.0" x2="8.0" y1="18" y2="82"/>
    <line id="right-margin-Regular-L" style="fill:none;stroke:#00AEEF;stroke-width:0.5;opacity:1.0;" x1="92.0" x2="92.0" y1="18" y2="82"/>
  </g>
  <g id="Symbols">
    <g id="Regular-S">
      <g transform="translate(28.5,28.5) scale(1.79167)">
          <path d="M 5.750 3.080 C 4.548 3.780, 4 5.343, 4 8.071 C 4 11.337, 4.444 12.245, 6.500 13.182 C 8.370 14.034, 9.630 14.034, 11.500 13.182 C 13.558 12.244, 14 11.338, 14 8.057 C 14 2.756, 10.221 0.476, 5.750 3.080 M 15 4 C 15 4.550, 15.627 5, 16.393 5 C 17.159 5, 18.045 5.675, 18.362 6.500 C 19.151 8.557, 18.082 11, 16.393 11 C 15.627 11, 15 11.450, 15 12 C 15 13.380, 17.344 13.256, 18.800 11.800 C 20.347 10.253, 20.347 5.747, 18.800 4.200 C 17.344 2.744, 15 2.620, 15 4 M 6 6 C 4.616 8.586, 6.323 12, 9 12 C 11.677 12, 13.384 8.586, 12 6 C 10.624 3.428, 7.376 3.428, 6 6 M 2 15.870 C 2 16.499, 3.582 17, 5.566 17 C 9.819 17, 13 18.513, 13 20.535 C 13 21.341, 13.450 22, 14 22 C 15.674 22, 15.118 19.417, 13.041 17.537 C 10.737 15.452, 2 14.133, 2 15.870 M 14 15.930 C 14 16.442, 15.012 17.005, 16.250 17.180 C 17.488 17.356, 18.944 18.512, 19.487 19.750 C 20.556 22.186, 22.009 22.768, 21.985 20.750 C 21.962 18.923, 20.788 17.451, 18.316 16.150 C 15.674 14.759, 14 14.674, 14 15.930" fill="#000000" fill-rule="evenodd"/>
      </g>
    </g>
    <g id="Regular-M">
      <g transform="translate(25,25) scale(2.08333)">
          <path d="M 5.750 3.080 C 4.548 3.780, 4 5.343, 4 8.071 C 4 11.337, 4.444 12.245, 6.500 13.182 C 8.370 14.034, 9.630 14.034, 11.500 13.182 C 13.558 12.244, 14 11.338, 14 8.057 C 14 2.756, 10.221 0.476, 5.750 3.080 M 15 4 C 15 4.550, 15.627 5, 16.393 5 C 17.159 5, 18.045 5.675, 18.362 6.500 C 19.151 8.557, 18.082 11, 16.393 11 C 15.627 11, 15 11.450, 15 12 C 15 13.380, 17.344 13.256, 18.800 11.800 C 20.347 10.253, 20.347 5.747, 18.800 4.200 C 17.344 2.744, 15 2.620, 15 4 M 6 6 C 4.616 8.586, 6.323 12, 9 12 C 11.677 12, 13.384 8.586, 12 6 C 10.624 3.428, 7.376 3.428, 6 6 M 2 15.870 C 2 16.499, 3.582 17, 5.566 17 C 9.819 17, 13 18.513, 13 20.535 C 13 21.341, 13.450 22, 14 22 C 15.674 22, 15.118 19.417, 13.041 17.537 C 10.737 15.452, 2 14.133, 2 15.870 M 14 15.930 C 14 16.442, 15.012 17.005, 16.250 17.180 C 17.488 17.356, 18.944 18.512, 19.487 19.750 C 20.556 22.186, 22.009 22.768, 21.985 20.750 C 21.962 18.923, 20.788 17.451, 18.316 16.150 C 15.674 14.759, 14 14.674, 14 15.930" fill="#000000" fill-rule="evenodd"/>
      </g>
    </g>
    <g id="Regular-L">
      <g transform="translate(22,22) scale(2.33333)">
          <path d="M 5.750 3.080 C 4.548 3.780, 4 5.343, 4 8.071 C 4 11.337, 4.444 12.245, 6.500 13.182 C 8.370 14.034, 9.630 14.034, 11.500 13.182 C 13.558 12.244, 14 11.338, 14 8.057 C 14 2.756, 10.221 0.476, 5.750 3.080 M 15 4 C 15 4.550, 15.627 5, 16.393 5 C 17.159 5, 18.045 5.675, 18.362 6.500 C 19.151 8.557, 18.082 11, 16.393 11 C 15.627 11, 15 11.450, 15 12 C 15 13.380, 17.344 13.256, 18.800 11.800 C 20.347 10.253, 20.347 5.747, 18.800 4.200 C 17.344 2.744, 15 2.620, 15 4 M 6 6 C 4.616 8.586, 6.323 12, 9 12 C 11.677 12, 13.384 8.586, 12 6 C 10.624 3.428, 7.376 3.428, 6 6 M 2 15.870 C 2 16.499, 3.582 17, 5.566 17 C 9.819 17, 13 18.513, 13 20.535 C 13 21.341, 13.450 22, 14 22 C 15.674 22, 15.118 19.417, 13.041 17.537 C 10.737 15.452, 2 14.133, 2 15.870 M 14 15.930 C 14 16.442, 15.012 17.005, 16.250 17.180 C 17.488 17.356, 18.944 18.512, 19.487 19.750 C 20.556 22.186, 22.009 22.768, 21.985 20.750 C 21.962 18.923, 20.788 17.451, 18.316 16.150 C 15.674 14.759, 14 14.674, 14 15.930" fill="#000000" fill-rule="evenodd"/>
      </g>
    </g>
  </g>
</svg>
