<?xml version="1.0" encoding="UTF-8"?>
<svg xmlns="http://www.w3.org/2000/svg" viewBox="0 0 100 100" fill="none">
  <g id="Guides">
    <line id="Baseline-S" style="fill:none;stroke:#27AAE1;opacity:1;stroke-width:0.5;" x1="0" x2="100" y1="71.5" y2="71.5"/>
    <line id="Capline-S" style="fill:none;stroke:#27AAE1;opacity:1;stroke-width:0.5;" x1="0" x2="100" y1="28.5" y2="28.5"/>
    <line id="left-margin-Regular-S" style="fill:none;stroke:#00AEEF;stroke-width:0.5;opacity:1.0;" x1="12.0" x2="12.0" y1="18" y2="82"/>
    <line id="right-margin-Regular-S" style="fill:none;stroke:#00AEEF;stroke-width:0.5;opacity:1.0;" x1="88.0" x2="88.0" y1="18" y2="82"/>
    <line id="Baseline-M" style="fill:none;stroke:#27AAE1;opacity:1;stroke-width:0.5;" x1="0" x2="100" y1="75.0" y2="75.0"/>
    <line id="Capline-M" style="fill:none;stroke:#27AAE1;opacity:1;stroke-width:0.5;" x1="0" x2="100" y1="25.0" y2="25.0"/>
    <line id="left-margin-Regular-M" style="fill:none;stroke:#00AEEF;stroke-width:0.5;opacity:1.0;" x1="10.0" x2="10.0" y1="18" y2="82"/>
    <line id="right-margin-Regular-M" style="fill:none;stroke:#00AEEF;stroke-width:0.5;opacity:1.0;" x1="90.0" x2="90.0" y1="18" y2="82"/>
    <line id="Baseline-L" style="fill:none;stroke:#27AAE1;opacity:1;stroke-width:0.5;" x1="0" x2="100" y1="78.0" y2="78.0"/>
    <line id="Capline-L" style="fill:none;stroke:#27AAE1;opacity:1;stroke-width:0.5;" x1="0" x2="100" y1="22.0" y2="22.0"/>
    <line id="left-margin-Regular-L" style="fill:none;stroke:#00AEEF;stroke-width:0.5;opacity:1.0;" x1="8.0" x2="8.0" y1="18" y2="82"/>
    <line id="right-margin-Regular-L" style="fill:none;stroke:#00AEEF;stroke-width:0.5;opacity:1.0;" x1="92.0" x2="92.0" y1="18" y2="82"/>
  </g>
  <g id="Symbols">
    <g id="Regular-S">
      <g transform="translate(28.5,28.5) scale(1.79167)">
          <path d="M 6.763 2.565 C 3.760 4.195, 1 8.713, 1 12 C 1 17.300, 6.700 23, 12 23 C 15.388 23, 19.849 20.193, 21.483 17.033 C 23.401 13.325, 23.401 10.675, 21.483 6.967 C 18.716 1.615, 12.138 -0.351, 6.763 2.565 M 5.923 5.923 C 3.928 7.918, 3 9.848, 3 12 C 3 15.141, 7.507 21, 9.923 21 C 10.613 21, 11 17.762, 11 12 C 11 6.238, 10.613 3, 9.923 3 C 9.331 3, 7.531 4.315, 5.923 5.923 M 13 4 C 13 4.550, 14.012 4.993, 15.250 4.985 C 17.069 4.972, 17.213 4.784, 16 4 C 14.061 2.747, 13 2.747, 13 4 M 14.762 7.707 C 16.006 7.946, 17.806 7.937, 18.762 7.687 C 19.718 7.437, 18.700 7.241, 16.500 7.252 C 14.300 7.263, 13.518 7.468, 14.762 7.707 M 14.750 10.706 C 15.988 10.944, 18.012 10.944, 19.250 10.706 C 20.488 10.467, 19.475 10.272, 17 10.272 C 14.525 10.272, 13.512 10.467, 14.750 10.706 M 14.750 13.706 C 15.988 13.944, 18.012 13.944, 19.250 13.706 C 20.488 13.467, 19.475 13.272, 17 13.272 C 14.525 13.272, 13.512 13.467, 14.750 13.706 M 14.762 16.707 C 16.006 16.946, 17.806 16.937, 18.762 16.687 C 19.718 16.437, 18.700 16.241, 16.500 16.252 C 14.300 16.263, 13.518 16.468, 14.762 16.707 M 13 20 C 13 21.253, 14.061 21.253, 16 20 C 17.213 19.216, 17.069 19.028, 15.250 19.015 C 14.012 19.007, 13 19.450, 13 20" fill="#000000" fill-rule="evenodd"/>
      </g>
    </g>
    <g id="Regular-M">
      <g transform="translate(25,25) scale(2.08333)">
          <path d="M 6.763 2.565 C 3.760 4.195, 1 8.713, 1 12 C 1 17.300, 6.700 23, 12 23 C 15.388 23, 19.849 20.193, 21.483 17.033 C 23.401 13.325, 23.401 10.675, 21.483 6.967 C 18.716 1.615, 12.138 -0.351, 6.763 2.565 M 5.923 5.923 C 3.928 7.918, 3 9.848, 3 12 C 3 15.141, 7.507 21, 9.923 21 C 10.613 21, 11 17.762, 11 12 C 11 6.238, 10.613 3, 9.923 3 C 9.331 3, 7.531 4.315, 5.923 5.923 M 13 4 C 13 4.550, 14.012 4.993, 15.250 4.985 C 17.069 4.972, 17.213 4.784, 16 4 C 14.061 2.747, 13 2.747, 13 4 M 14.762 7.707 C 16.006 7.946, 17.806 7.937, 18.762 7.687 C 19.718 7.437, 18.700 7.241, 16.500 7.252 C 14.300 7.263, 13.518 7.468, 14.762 7.707 M 14.750 10.706 C 15.988 10.944, 18.012 10.944, 19.250 10.706 C 20.488 10.467, 19.475 10.272, 17 10.272 C 14.525 10.272, 13.512 10.467, 14.750 10.706 M 14.750 13.706 C 15.988 13.944, 18.012 13.944, 19.250 13.706 C 20.488 13.467, 19.475 13.272, 17 13.272 C 14.525 13.272, 13.512 13.467, 14.750 13.706 M 14.762 16.707 C 16.006 16.946, 17.806 16.937, 18.762 16.687 C 19.718 16.437, 18.700 16.241, 16.500 16.252 C 14.300 16.263, 13.518 16.468, 14.762 16.707 M 13 20 C 13 21.253, 14.061 21.253, 16 20 C 17.213 19.216, 17.069 19.028, 15.250 19.015 C 14.012 19.007, 13 19.450, 13 20" fill="#000000" fill-rule="evenodd"/>
      </g>
    </g>
    <g id="Regular-L">
      <g transform="translate(22,22) scale(2.33333)">
          <path d="M 6.763 2.565 C 3.760 4.195, 1 8.713, 1 12 C 1 17.300, 6.700 23, 12 23 C 15.388 23, 19.849 20.193, 21.483 17.033 C 23.401 13.325, 23.401 10.675, 21.483 6.967 C 18.716 1.615, 12.138 -0.351, 6.763 2.565 M 5.923 5.923 C 3.928 7.918, 3 9.848, 3 12 C 3 15.141, 7.507 21, 9.923 21 C 10.613 21, 11 17.762, 11 12 C 11 6.238, 10.613 3, 9.923 3 C 9.331 3, 7.531 4.315, 5.923 5.923 M 13 4 C 13 4.550, 14.012 4.993, 15.250 4.985 C 17.069 4.972, 17.213 4.784, 16 4 C 14.061 2.747, 13 2.747, 13 4 M 14.762 7.707 C 16.006 7.946, 17.806 7.937, 18.762 7.687 C 19.718 7.437, 18.700 7.241, 16.500 7.252 C 14.300 7.263, 13.518 7.468, 14.762 7.707 M 14.750 10.706 C 15.988 10.944, 18.012 10.944, 19.250 10.706 C 20.488 10.467, 19.475 10.272, 17 10.272 C 14.525 10.272, 13.512 10.467, 14.750 10.706 M 14.750 13.706 C 15.988 13.944, 18.012 13.944, 19.250 13.706 C 20.488 13.467, 19.475 13.272, 17 13.272 C 14.525 13.272, 13.512 13.467, 14.750 13.706 M 14.762 16.707 C 16.006 16.946, 17.806 16.937, 18.762 16.687 C 19.718 16.437, 18.700 16.241, 16.500 16.252 C 14.300 16.263, 13.518 16.468, 14.762 16.707 M 13 20 C 13 21.253, 14.061 21.253, 16 20 C 17.213 19.216, 17.069 19.028, 15.250 19.015 C 14.012 19.007, 13 19.450, 13 20" fill="#000000" fill-rule="evenodd"/>
      </g>
    </g>
  </g>
</svg>
