<?xml version="1.0" encoding="UTF-8"?>
<svg xmlns="http://www.w3.org/2000/svg" viewBox="0 0 100 100" fill="none">
  <g id="Guides">
    <line id="Baseline-S" style="fill:none;stroke:#27AAE1;opacity:1;stroke-width:0.5;" x1="0" x2="100" y1="71.5" y2="71.5"/>
    <line id="Capline-S" style="fill:none;stroke:#27AAE1;opacity:1;stroke-width:0.5;" x1="0" x2="100" y1="28.5" y2="28.5"/>
    <line id="left-margin-Regular-S" style="fill:none;stroke:#00AEEF;stroke-width:0.5;opacity:1.0;" x1="12.0" x2="12.0" y1="18" y2="82"/>
    <line id="right-margin-Regular-S" style="fill:none;stroke:#00AEEF;stroke-width:0.5;opacity:1.0;" x1="88.0" x2="88.0" y1="18" y2="82"/>
    <line id="Baseline-M" style="fill:none;stroke:#27AAE1;opacity:1;stroke-width:0.5;" x1="0" x2="100" y1="75.0" y2="75.0"/>
    <line id="Capline-M" style="fill:none;stroke:#27AAE1;opacity:1;stroke-width:0.5;" x1="0" x2="100" y1="25.0" y2="25.0"/>
    <line id="left-margin-Regular-M" style="fill:none;stroke:#00AEEF;stroke-width:0.5;opacity:1.0;" x1="10.0" x2="10.0" y1="18" y2="82"/>
    <line id="right-margin-Regular-M" style="fill:none;stroke:#00AEEF;stroke-width:0.5;opacity:1.0;" x1="90.0" x2="90.0" y1="18" y2="82"/>
    <line id="Baseline-L" style="fill:none;stroke:#27AAE1;opacity:1;stroke-width:0.5;" x1="0" x2="100" y1="78.0" y2="78.0"/>
    <line id="Capline-L" style="fill:none;stroke:#27AAE1;opacity:1;stroke-width:0.5;" x1="0" x2="100" y1="22.0" y2="22.0"/>
    <line id="left-margin-Regular-L" style="fill:none;stroke:#00AEEF;stroke-width:0.5;opacity:1.0;" x1="8.0" x2="8.0" y1="18" y2="82"/>
    <line id="right-margin-Regular-L" style="fill:none;stroke:#00AEEF;stroke-width:0.5;opacity:1.0;" x1="92.0" x2="92.0" y1="18" y2="82"/>
  </g>
  <g id="Symbols">
    <g id="Regular-S">
      <g transform="translate(28.5,28.5) scale(1.79167)">
          <path d="M 5.986 7.514 L 1.555 12.029 6.243 16.716 C 8.821 19.294, 11.252 21.081, 11.647 20.687 C 12.041 20.293, 10.843 18.402, 8.985 16.485 L 5.608 13 13.804 13 C 18.601 13, 22 12.585, 22 12 C 22 11.415, 18.601 11, 13.804 11 L 5.608 11 8.804 7.702 C 10.562 5.889, 12 4.089, 12 3.702 C 12 2.094, 10.163 3.258, 5.986 7.514" fill="#000000" fill-rule="evenodd"/>
      </g>
    </g>
    <g id="Regular-M">
      <g transform="translate(25,25) scale(2.08333)">
          <path d="M 5.986 7.514 L 1.555 12.029 6.243 16.716 C 8.821 19.294, 11.252 21.081, 11.647 20.687 C 12.041 20.293, 10.843 18.402, 8.985 16.485 L 5.608 13 13.804 13 C 18.601 13, 22 12.585, 22 12 C 22 11.415, 18.601 11, 13.804 11 L 5.608 11 8.804 7.702 C 10.562 5.889, 12 4.089, 12 3.702 C 12 2.094, 10.163 3.258, 5.986 7.514" fill="#000000" fill-rule="evenodd"/>
      </g>
    </g>
    <g id="Regular-L">
      <g transform="translate(22,22) scale(2.33333)">
          <path d="M 5.986 7.514 L 1.555 12.029 6.243 16.716 C 8.821 19.294, 11.252 21.081, 11.647 20.687 C 12.041 20.293, 10.843 18.402, 8.985 16.485 L 5.608 13 13.804 13 C 18.601 13, 22 12.585, 22 12 C 22 11.415, 18.601 11, 13.804 11 L 5.608 11 8.804 7.702 C 10.562 5.889, 12 4.089, 12 3.702 C 12 2.094, 10.163 3.258, 5.986 7.514" fill="#000000" fill-rule="evenodd"/>
      </g>
    </g>
  </g>
</svg>
